<mxfile host="app.diagrams.net" modified="2023-10-23T11:17:37.916Z" agent="Mozilla/5.0 (Windows NT 10.0; Win64; x64) AppleWebKit/537.36 (KHTML, like Gecko) Chrome/117.0.0.0 Safari/537.36 OPR/103.0.0.0" etag="HMHquczATenrTv1ku0c6" version="22.0.6" type="github">
  <diagram name="Page-1" id="vCa83BC04NCuVr4djs_l">
    <mxGraphModel dx="1910" dy="1138" grid="1" gridSize="10" guides="1" tooltips="1" connect="1" arrows="1" fold="1" page="1" pageScale="1" pageWidth="850" pageHeight="1100" math="0" shadow="0">
      <root>
        <mxCell id="0" />
        <mxCell id="1" parent="0" />
        <mxCell id="mw1gzwu5YXPuhmwgK-74-7" value="Data Loader" style="shape=umlLifeline;perimeter=lifelinePerimeter;whiteSpace=wrap;html=1;container=1;dropTarget=0;collapsible=0;recursiveResize=0;outlineConnect=0;portConstraint=eastwest;newEdgeStyle={&quot;curved&quot;:0,&quot;rounded&quot;:0};fontSize=16;" vertex="1" parent="1">
          <mxGeometry x="-20" y="160" width="100" height="120" as="geometry" />
        </mxCell>
        <mxCell id="mw1gzwu5YXPuhmwgK-74-8" value="EDA" style="shape=umlLifeline;perimeter=lifelinePerimeter;whiteSpace=wrap;html=1;container=1;dropTarget=0;collapsible=0;recursiveResize=0;outlineConnect=0;portConstraint=eastwest;newEdgeStyle={&quot;curved&quot;:0,&quot;rounded&quot;:0};fontSize=16;" vertex="1" parent="1">
          <mxGeometry x="140" y="160" width="100" height="120" as="geometry" />
        </mxCell>
        <mxCell id="mw1gzwu5YXPuhmwgK-74-9" value="Splitter" style="shape=umlLifeline;perimeter=lifelinePerimeter;whiteSpace=wrap;html=1;container=1;dropTarget=0;collapsible=0;recursiveResize=0;outlineConnect=0;portConstraint=eastwest;newEdgeStyle={&quot;curved&quot;:0,&quot;rounded&quot;:0};fontSize=16;" vertex="1" parent="1">
          <mxGeometry x="300" y="160" width="100" height="200" as="geometry" />
        </mxCell>
        <mxCell id="mw1gzwu5YXPuhmwgK-74-10" value="_Preprocessor" style="shape=umlLifeline;perimeter=lifelinePerimeter;whiteSpace=wrap;html=1;container=1;dropTarget=0;collapsible=0;recursiveResize=0;outlineConnect=0;portConstraint=eastwest;newEdgeStyle={&quot;curved&quot;:0,&quot;rounded&quot;:0};fontSize=16;" vertex="1" parent="1">
          <mxGeometry x="460" y="160" width="100" height="200" as="geometry" />
        </mxCell>
        <mxCell id="mw1gzwu5YXPuhmwgK-74-11" value="Model" style="shape=umlLifeline;perimeter=lifelinePerimeter;whiteSpace=wrap;html=1;container=1;dropTarget=0;collapsible=0;recursiveResize=0;outlineConnect=0;portConstraint=eastwest;newEdgeStyle={&quot;curved&quot;:0,&quot;rounded&quot;:0};fontSize=16;" vertex="1" parent="1">
          <mxGeometry x="620" y="160" width="100" height="240" as="geometry" />
        </mxCell>
        <mxCell id="mw1gzwu5YXPuhmwgK-74-12" value="" style="html=1;points=[[0,0,0,0,5],[0,1,0,0,-5],[1,0,0,0,5],[1,1,0,0,-5]];perimeter=orthogonalPerimeter;outlineConnect=0;targetShapes=umlLifeline;portConstraint=eastwest;newEdgeStyle={&quot;curved&quot;:0,&quot;rounded&quot;:0};fontSize=16;" vertex="1" parent="1">
          <mxGeometry x="25" y="280" width="10" height="160" as="geometry" />
        </mxCell>
        <mxCell id="mw1gzwu5YXPuhmwgK-74-13" value="" style="html=1;points=[[0,0,0,0,5],[0,1,0,0,-5],[1,0,0,0,5],[1,1,0,0,-5]];perimeter=orthogonalPerimeter;outlineConnect=0;targetShapes=umlLifeline;portConstraint=eastwest;newEdgeStyle={&quot;curved&quot;:0,&quot;rounded&quot;:0};fontSize=16;" vertex="1" parent="1">
          <mxGeometry x="185" y="280" width="10" height="60" as="geometry" />
        </mxCell>
        <mxCell id="mw1gzwu5YXPuhmwgK-74-14" value="Data" style="html=1;verticalAlign=bottom;startArrow=oval;endArrow=block;startSize=8;curved=0;rounded=0;entryX=0;entryY=0;entryDx=0;entryDy=5;fontSize=12;" edge="1" parent="1">
          <mxGeometry relative="1" as="geometry">
            <mxPoint x="40" y="300" as="sourcePoint" />
            <mxPoint x="185" y="300" as="targetPoint" />
          </mxGeometry>
        </mxCell>
        <mxCell id="mw1gzwu5YXPuhmwgK-74-16" value="" style="html=1;points=[[0,0,0,0,5],[0,1,0,0,-5],[1,0,0,0,5],[1,1,0,0,-5]];perimeter=orthogonalPerimeter;outlineConnect=0;targetShapes=umlLifeline;portConstraint=eastwest;newEdgeStyle={&quot;curved&quot;:0,&quot;rounded&quot;:0};fontSize=16;" vertex="1" parent="1">
          <mxGeometry x="345" y="360" width="10" height="80" as="geometry" />
        </mxCell>
        <mxCell id="mw1gzwu5YXPuhmwgK-74-17" value="Data" style="html=1;verticalAlign=bottom;startArrow=oval;startFill=1;endArrow=block;startSize=8;curved=0;rounded=0;fontSize=12;" edge="1" parent="1" target="mw1gzwu5YXPuhmwgK-74-16">
          <mxGeometry x="-0.0033" width="60" relative="1" as="geometry">
            <mxPoint x="40" y="400" as="sourcePoint" />
            <mxPoint x="430" y="550" as="targetPoint" />
            <Array as="points">
              <mxPoint x="270" y="400" />
            </Array>
            <mxPoint as="offset" />
          </mxGeometry>
        </mxCell>
        <mxCell id="mw1gzwu5YXPuhmwgK-74-18" value="" style="html=1;points=[[0,0,0,0,5],[0,1,0,0,-5],[1,0,0,0,5],[1,1,0,0,-5]];perimeter=orthogonalPerimeter;outlineConnect=0;targetShapes=umlLifeline;portConstraint=eastwest;newEdgeStyle={&quot;curved&quot;:0,&quot;rounded&quot;:0};fontSize=16;" vertex="1" parent="1">
          <mxGeometry x="505" y="360" width="10" height="280" as="geometry" />
        </mxCell>
        <mxCell id="mw1gzwu5YXPuhmwgK-74-19" value="Train Data" style="html=1;verticalAlign=bottom;startArrow=oval;startFill=1;endArrow=block;startSize=8;curved=0;rounded=0;fontSize=12;" edge="1" parent="1" target="mw1gzwu5YXPuhmwgK-74-18">
          <mxGeometry width="60" relative="1" as="geometry">
            <mxPoint x="360" y="400" as="sourcePoint" />
            <mxPoint x="430" y="550" as="targetPoint" />
          </mxGeometry>
        </mxCell>
        <mxCell id="mw1gzwu5YXPuhmwgK-74-20" value="User" style="shape=umlLifeline;perimeter=lifelinePerimeter;whiteSpace=wrap;html=1;container=1;dropTarget=0;collapsible=0;recursiveResize=0;outlineConnect=0;portConstraint=eastwest;newEdgeStyle={&quot;curved&quot;:0,&quot;rounded&quot;:0};fontSize=16;" vertex="1" parent="1">
          <mxGeometry x="-180" y="160" width="100" height="120" as="geometry" />
        </mxCell>
        <mxCell id="mw1gzwu5YXPuhmwgK-74-21" value="" style="html=1;points=[[0,0,0,0,5],[0,1,0,0,-5],[1,0,0,0,5],[1,1,0,0,-5]];perimeter=orthogonalPerimeter;outlineConnect=0;targetShapes=umlLifeline;portConstraint=eastwest;newEdgeStyle={&quot;curved&quot;:0,&quot;rounded&quot;:0};fontSize=16;" vertex="1" parent="1">
          <mxGeometry x="-135" y="280" width="10" height="80" as="geometry" />
        </mxCell>
        <mxCell id="mw1gzwu5YXPuhmwgK-74-22" value="Data" style="html=1;verticalAlign=bottom;startArrow=oval;startFill=1;endArrow=block;startSize=8;curved=0;rounded=0;fontSize=12;" edge="1" parent="1" source="mw1gzwu5YXPuhmwgK-74-21" target="mw1gzwu5YXPuhmwgK-74-12">
          <mxGeometry width="60" relative="1" as="geometry">
            <mxPoint x="-60" y="550" as="sourcePoint" />
            <mxPoint x="30" y="310" as="targetPoint" />
            <Array as="points">
              <mxPoint x="-20" y="300" />
            </Array>
          </mxGeometry>
        </mxCell>
        <mxCell id="mw1gzwu5YXPuhmwgK-74-23" value="" style="html=1;points=[[0,0,0,0,5],[0,1,0,0,-5],[1,0,0,0,5],[1,1,0,0,-5]];perimeter=orthogonalPerimeter;outlineConnect=0;targetShapes=umlLifeline;portConstraint=eastwest;newEdgeStyle={&quot;curved&quot;:0,&quot;rounded&quot;:0};fontSize=16;" vertex="1" parent="1">
          <mxGeometry x="665" y="400" width="10" height="80" as="geometry" />
        </mxCell>
        <mxCell id="mw1gzwu5YXPuhmwgK-74-24" value="Preprocessed train data" style="html=1;verticalAlign=bottom;startArrow=oval;startFill=1;endArrow=block;startSize=8;curved=0;rounded=0;fontSize=12;entryX=0.5;entryY=0.5;entryDx=0;entryDy=0;entryPerimeter=0;" edge="1" parent="1" target="mw1gzwu5YXPuhmwgK-74-23">
          <mxGeometry width="60" relative="1" as="geometry">
            <mxPoint x="520" y="440" as="sourcePoint" />
            <mxPoint x="260" y="550" as="targetPoint" />
          </mxGeometry>
        </mxCell>
        <mxCell id="mw1gzwu5YXPuhmwgK-74-25" value="" style="html=1;points=[[0,0,0,0,5],[0,1,0,0,-5],[1,0,0,0,5],[1,1,0,0,-5]];perimeter=orthogonalPerimeter;outlineConnect=0;targetShapes=umlLifeline;portConstraint=eastwest;newEdgeStyle={&quot;curved&quot;:0,&quot;rounded&quot;:0};fontSize=16;" vertex="1" parent="1">
          <mxGeometry x="665" y="550" width="10" height="90" as="geometry" />
        </mxCell>
        <mxCell id="mw1gzwu5YXPuhmwgK-74-26" value="Test Data" style="html=1;verticalAlign=bottom;startArrow=oval;startFill=1;endArrow=block;startSize=8;curved=0;rounded=0;fontSize=12;entryX=0.5;entryY=0.333;entryDx=0;entryDy=0;entryPerimeter=0;" edge="1" parent="1" target="mw1gzwu5YXPuhmwgK-74-25">
          <mxGeometry width="60" relative="1" as="geometry">
            <mxPoint x="520" y="580" as="sourcePoint" />
            <mxPoint x="470" y="550" as="targetPoint" />
          </mxGeometry>
        </mxCell>
        <mxCell id="mw1gzwu5YXPuhmwgK-74-29" value="" style="endArrow=none;dashed=1;html=1;rounded=0;fontSize=12;startSize=8;endSize=8;curved=1;" edge="1" parent="1">
          <mxGeometry width="50" height="50" relative="1" as="geometry">
            <mxPoint x="670" y="550" as="sourcePoint" />
            <mxPoint x="670" y="480" as="targetPoint" />
          </mxGeometry>
        </mxCell>
        <mxCell id="mw1gzwu5YXPuhmwgK-74-30" value="" style="endArrow=none;dashed=1;html=1;rounded=0;fontSize=12;startSize=8;endSize=8;curved=1;" edge="1" parent="1">
          <mxGeometry width="50" height="50" relative="1" as="geometry">
            <mxPoint x="-130" y="690" as="sourcePoint" />
            <mxPoint x="-130" y="360" as="targetPoint" />
          </mxGeometry>
        </mxCell>
        <mxCell id="mw1gzwu5YXPuhmwgK-74-36" value="" style="html=1;points=[[0,0,0,0,5],[0,1,0,0,-5],[1,0,0,0,5],[1,1,0,0,-5]];perimeter=orthogonalPerimeter;outlineConnect=0;targetShapes=umlLifeline;portConstraint=eastwest;newEdgeStyle={&quot;curved&quot;:0,&quot;rounded&quot;:0};fontSize=16;" vertex="1" parent="1">
          <mxGeometry x="665" y="710" width="10" height="80" as="geometry" />
        </mxCell>
        <mxCell id="mw1gzwu5YXPuhmwgK-74-37" value="dispatch" style="html=1;verticalAlign=bottom;endArrow=block;curved=0;rounded=0;entryX=0;entryY=0;entryDx=0;entryDy=5;fontSize=12;startSize=8;endSize=8;" edge="1" target="mw1gzwu5YXPuhmwgK-74-36" parent="1" source="mw1gzwu5YXPuhmwgK-74-39">
          <mxGeometry relative="1" as="geometry">
            <mxPoint x="200" y="515" as="sourcePoint" />
          </mxGeometry>
        </mxCell>
        <mxCell id="mw1gzwu5YXPuhmwgK-74-38" value="return" style="html=1;verticalAlign=bottom;endArrow=open;dashed=1;endSize=8;curved=0;rounded=0;exitX=0;exitY=1;exitDx=0;exitDy=-5;fontSize=12;" edge="1" source="mw1gzwu5YXPuhmwgK-74-36" parent="1">
          <mxGeometry relative="1" as="geometry">
            <mxPoint x="-120" y="785" as="targetPoint" />
          </mxGeometry>
        </mxCell>
        <mxCell id="mw1gzwu5YXPuhmwgK-74-39" value="" style="html=1;points=[[0,0,0,0,5],[0,1,0,0,-5],[1,0,0,0,5],[1,1,0,0,-5]];perimeter=orthogonalPerimeter;outlineConnect=0;targetShapes=umlLifeline;portConstraint=eastwest;newEdgeStyle={&quot;curved&quot;:0,&quot;rounded&quot;:0};fontSize=16;" vertex="1" parent="1">
          <mxGeometry x="-135" y="680" width="10" height="130" as="geometry" />
        </mxCell>
        <mxCell id="mw1gzwu5YXPuhmwgK-74-40" value="" style="endArrow=none;dashed=1;html=1;rounded=0;fontSize=12;startSize=8;endSize=8;curved=1;" edge="1" parent="1">
          <mxGeometry width="50" height="50" relative="1" as="geometry">
            <mxPoint x="670" y="710" as="sourcePoint" />
            <mxPoint x="670" y="640" as="targetPoint" />
          </mxGeometry>
        </mxCell>
      </root>
    </mxGraphModel>
  </diagram>
</mxfile>
